<?xml version="1.0" encoding="UTF-8" standalone="no"?>
<!DOCTYPE svg PUBLIC "-//W3C//DTD SVG 1.1//EN"
 "http://www.w3.org/Graphics/SVG/1.1/DTD/svg11.dtd">
<!-- Generated by graphviz version 2.43.0 (0)
 -->
<!-- Title: D Pages: 1 -->
<svg width="518pt" height="199pt"
 viewBox="0.00 0.00 517.99 199.00" xmlns="http://www.w3.org/2000/svg" xmlns:xlink="http://www.w3.org/1999/xlink">
<g id="graph0" class="graph" transform="scale(1 1) rotate(0) translate(4 195)">
<title>D</title>
<polygon fill="white" stroke="transparent" points="-4,4 -4,-195 513.99,-195 513.99,4 -4,4"/>
<text text-anchor="middle" x="255" y="-6.8" font-family="Helvetica,sans-Serif" font-size="9.00" fill="#000060">&#45; /home/zeno/project/mine/dfd/dfd&#45;preview &#45;</text>
<!-- data&#45;flow&#45;diagram -->
<g id="node1" class="node">
<title>data&#45;flow&#45;diagram</title>
<ellipse fill="#eeeeee" stroke="black" cx="352.73" cy="-146" rx="55.17" ry="18"/>
<text text-anchor="middle" x="352.73" y="-143.5" font-family="Helvetica,sans-Serif" font-size="10.00">data&#45;flow&#45;diagram</text>
</g>
<!-- python3 -->
<g id="node2" class="node">
<title>python3</title>
<ellipse fill="#eeeeee" stroke="black" cx="477.03" cy="-173" rx="30.04" ry="18"/>
<text text-anchor="middle" x="477.03" y="-170.5" font-family="Helvetica,sans-Serif" font-size="10.00">python3</text>
</g>
<!-- data&#45;flow&#45;diagram&#45;&gt;python3 -->
<g id="edge8" class="edge">
<title>data&#45;flow&#45;diagram&#45;&gt;python3</title>
<path fill="none" stroke="gray" d="M398.92,-155.98C411.89,-158.84 425.89,-161.93 438.36,-164.68"/>
<polygon fill="gray" stroke="gray" points="437.89,-168.17 448.41,-166.9 439.4,-161.33 437.89,-168.17"/>
</g>
<!-- Graphviz -->
<g id="node3" class="node">
<title>Graphviz</title>
<ellipse fill="#eeeeee" stroke="black" cx="477.03" cy="-119" rx="32.93" ry="18"/>
<text text-anchor="middle" x="477.03" y="-116.5" font-family="Helvetica,sans-Serif" font-size="10.00">Graphviz</text>
</g>
<!-- data&#45;flow&#45;diagram&#45;&gt;Graphviz -->
<g id="edge9" class="edge">
<title>data&#45;flow&#45;diagram&#45;&gt;Graphviz</title>
<path fill="none" stroke="gray" d="M398.92,-136.02C411.13,-133.33 424.25,-130.43 436.15,-127.8"/>
<polygon fill="gray" stroke="gray" points="437.22,-131.15 446.23,-125.58 435.71,-124.32 437.22,-131.15"/>
</g>
<!-- dfdFile -->
<g id="node4" class="node">
<title>dfdFile</title>
<polygon fill="none" stroke="black" points="55.26,-118 1.26,-118 1.26,-82 55.26,-82 55.26,-118"/>
<text text-anchor="middle" x="28.26" y="-97.5" font-family="Helvetica,sans-Serif" font-size="10.00">dfdFile</text>
</g>
<!-- dfd&#45;preview -->
<g id="node8" class="node">
<title>dfd&#45;preview</title>
<ellipse fill="#eeeeee" stroke="black" cx="131.95" cy="-96" rx="39.38" ry="18"/>
<text text-anchor="middle" x="131.95" y="-93.5" font-family="Helvetica,sans-Serif" font-size="10.00">dfd&#45;preview</text>
</g>
<!-- dfdFile&#45;&gt;dfd&#45;preview -->
<g id="edge1" class="edge">
<title>dfdFile&#45;&gt;dfd&#45;preview</title>
<path fill="none" stroke="gray" d="M55.45,-98.97C63.74,-98.64 73.2,-98.27 82.54,-97.9"/>
<polygon fill="gray" stroke="gray" points="82.72,-101.4 92.58,-97.51 82.45,-94.41 82.72,-101.4"/>
</g>
<!-- svgFile -->
<g id="node5" class="node">
<title>svgFile</title>
<polygon fill="none" stroke="black" points="261.39,-110 207.39,-110 207.39,-74 261.39,-74 261.39,-110"/>
<text text-anchor="middle" x="234.39" y="-89.5" font-family="Helvetica,sans-Serif" font-size="10.00">svgFile</text>
</g>
<!-- webview -->
<g id="node9" class="node">
<title>webview</title>
<ellipse fill="#eeeeee" stroke="black" cx="352.73" cy="-69" rx="32.25" ry="18"/>
<text text-anchor="middle" x="352.73" y="-66.5" font-family="Helvetica,sans-Serif" font-size="10.00">webview</text>
</g>
<!-- svgFile&#45;&gt;webview -->
<g id="edge3" class="edge">
<title>svgFile&#45;&gt;webview</title>
<path fill="none" stroke="gray" d="M261.5,-86.84C276.37,-83.9 295.3,-80.16 311.98,-76.86"/>
<polygon fill="gray" stroke="gray" points="312.88,-80.25 322.02,-74.87 311.53,-73.38 312.88,-80.25"/>
</g>
<!-- vscode -->
<g id="node6" class="node">
<title>vscode</title>
<ellipse fill="#eeeeee" stroke="black" stroke-dasharray="5,2" cx="28.26" cy="-46" rx="28.01" ry="18"/>
<text text-anchor="middle" x="28.26" y="-43.5" font-family="Helvetica,sans-Serif" font-size="10.00">vscode</text>
</g>
<!-- vscode&#45;&gt;dfd&#45;preview -->
<g id="edge4" class="edge">
<title>vscode&#45;&gt;dfd&#45;preview</title>
<path fill="none" stroke="gray" stroke-dasharray="5,2" d="M51.07,-56.73C63.9,-63.03 80.44,-71.17 95.14,-78.39"/>
<polygon fill="gray" stroke="gray" points="93.96,-81.71 104.48,-82.98 97.05,-75.43 93.96,-81.71"/>
</g>
<!-- vscode&#45;&gt;webview -->
<g id="edge5" class="edge">
<title>vscode&#45;&gt;webview</title>
<path fill="none" stroke="gray" stroke-dasharray="5,2" d="M56.47,-47.94C112.97,-51.97 243.29,-61.27 310.29,-66.04"/>
<polygon fill="gray" stroke="gray" points="310.26,-69.55 320.48,-66.77 310.76,-62.57 310.26,-69.55"/>
</g>
<!-- shell -->
<g id="node7" class="node">
<title>shell</title>
<ellipse fill="#eeeeee" stroke="black" cx="234.39" cy="-146" rx="27" ry="18"/>
<text text-anchor="middle" x="234.39" y="-143.5" font-family="Helvetica,sans-Serif" font-size="10.00">shell</text>
</g>
<!-- shell&#45;&gt;data&#45;flow&#45;diagram -->
<g id="edge7" class="edge">
<title>shell&#45;&gt;data&#45;flow&#45;diagram</title>
<path fill="none" stroke="gray" d="M261.5,-146C269.19,-146 277.97,-146 286.96,-146"/>
<polygon fill="gray" stroke="gray" points="287.15,-149.5 297.15,-146 287.15,-142.5 287.15,-149.5"/>
</g>
<!-- dfd&#45;preview&#45;&gt;svgFile -->
<g id="edge2" class="edge">
<title>dfd&#45;preview&#45;&gt;svgFile</title>
<path fill="none" stroke="gray" d="M171.5,-94.46C179.9,-94.13 188.76,-93.78 197.08,-93.45"/>
<polygon fill="gray" stroke="gray" points="197.38,-96.94 207.23,-93.04 197.1,-89.94 197.38,-96.94"/>
</g>
<!-- dfd&#45;preview&#45;&gt;shell -->
<g id="edge6" class="edge">
<title>dfd&#45;preview&#45;&gt;shell</title>
<path fill="none" stroke="gray" stroke-dasharray="5,2" d="M159.34,-109.14C172.75,-115.81 189.12,-123.96 203.05,-130.89"/>
<polygon fill="gray" stroke="gray" points="201.73,-134.15 212.24,-135.47 204.85,-127.88 201.73,-134.15"/>
</g>
</g>
</svg>
