<?xml version="1.0" encoding="UTF-8" standalone="no"?>
<!DOCTYPE svg PUBLIC "-//W3C//DTD SVG 1.1//EN"
 "http://www.w3.org/Graphics/SVG/1.1/DTD/svg11.dtd">
<!-- Generated by graphviz version 12.1.0 (0)
 -->
<!-- Title: D Pages: 1 -->
<svg width="476pt" height="132pt"
 viewBox="0.00 0.00 475.54 132.25" xmlns="http://www.w3.org/2000/svg" xmlns:xlink="http://www.w3.org/1999/xlink">
<g id="graph0" class="graph" transform="scale(1 1) rotate(0) translate(4 128.25)">
<title>D</title>
<polygon fill="white" stroke="none" points="-4,4 -4,-128.25 471.54,-128.25 471.54,4 -4,4"/>
<text text-anchor="middle" x="233.77" y="-6.7" font-family="Helvetica,sans-Serif" font-size="9.00" fill="#000060">&#45; /data/data/com.termux/files/home/github/dfd/example &#45;</text>
<!-- Clock -->
<g id="node1" class="node">
<title>Clock</title>
<polygon fill="none" stroke="black" points="54,-124.25 0,-124.25 0,-88.25 54,-88.25 54,-124.25"/>
<text text-anchor="middle" x="27" y="-103.12" font-family="Helvetica,sans-Serif" font-size="10.00">Clock</text>
</g>
<!-- Timer -->
<g id="node5" class="node">
<title>Timer</title>
<ellipse fill="#eeeeee" stroke="black" stroke-dasharray="5,2" cx="148.62" cy="-106.25" rx="27.23" ry="18"/>
<text text-anchor="middle" x="148.62" y="-103.12" font-family="Helvetica,sans-Serif" font-size="10.00">Timer</text>
</g>
<!-- Clock&#45;&gt;Timer -->
<g id="edge4" class="edge">
<title>Clock&#45;&gt;Timer</title>
<path fill="none" stroke="gray" stroke-dasharray="5,2" d="M54.25,-106.25C70.5,-106.25 91.63,-106.25 109.69,-106.25"/>
<polygon fill="gray" stroke="gray" points="109.51,-109.75 119.51,-106.25 109.51,-102.75 109.51,-109.75"/>
<text text-anchor="middle" x="81" y="-109.5" font-family="Times,serif" font-style="italic" font-size="10.00">tick</text>
</g>
<!-- Button -->
<g id="node2" class="node">
<title>Button</title>
<polygon fill="none" stroke="black" points="467.54,-124.25 413.54,-124.25 413.54,-88.25 467.54,-88.25 467.54,-124.25"/>
<text text-anchor="middle" x="440.54" y="-103.12" font-family="Helvetica,sans-Serif" font-size="10.00">Button</text>
</g>
<!-- Lamp -->
<g id="node3" class="node">
<title>Lamp</title>
<polygon fill="none" stroke="black" points="467.54,-65.25 413.54,-65.25 413.54,-29.25 467.54,-29.25 467.54,-65.25"/>
<text text-anchor="middle" x="440.54" y="-44.12" font-family="Helvetica,sans-Serif" font-size="10.00">Lamp</text>
</g>
<!-- Power -->
<g id="node4" class="node">
<title>Power</title>
<polygon fill="none" stroke="black" points="189.25,-65.25 108,-65.25 108,-29.25 189.25,-29.25 189.25,-65.25"/>
<text text-anchor="middle" x="148.62" y="-44.12" font-family="Helvetica,sans-Serif" font-size="10.00">Power supply</text>
</g>
<!-- Driver -->
<g id="node6" class="node">
<title>Driver</title>
<ellipse fill="#eeeeee" stroke="black" cx="301.4" cy="-52.25" rx="28.15" ry="18"/>
<text text-anchor="middle" x="301.4" y="-49.12" font-family="Helvetica,sans-Serif" font-size="10.00">Driver</text>
</g>
<!-- Power&#45;&gt;Driver -->
<g id="edge6" class="edge">
<title>Power&#45;&gt;Driver</title>
<path fill="none" stroke="gray" d="M189.52,-47.05C205.2,-47.11 223.7,-47.34 250.45,-48.53"/>
<polygon fill="gray" stroke="gray" points="261.53,-52.59 271.69,-49.6 261.88,-45.6 261.53,-52.59"/>
<polygon fill="gray" stroke="gray" points="249.53,-51.99 259.69,-49 249.88,-45 249.53,-51.99"/>
<text text-anchor="middle" x="231.25" y="-51.75" font-family="Times,serif" font-style="italic" font-size="10.00">voltage</text>
</g>
<!-- Timer&#45;&gt;Button -->
<g id="edge2" class="edge">
<title>Timer&#45;&gt;Button</title>
<path fill="none" stroke="gray" stroke-dasharray="5,2" d="M187.28,-106.25C246.91,-106.25 361.58,-106.25 413.21,-106.25"/>
<polygon fill="gray" stroke="gray" points="187.64,-102.75 177.64,-106.25 187.64,-109.75 187.64,-102.75"/>
<text text-anchor="middle" x="301.4" y="-109.5" font-family="Times,serif" font-style="italic" font-size="10.00">reset</text>
</g>
<!-- Timer&#45;&gt;Driver -->
<g id="edge3" class="edge">
<title>Timer&#45;&gt;Driver</title>
<path fill="none" stroke="gray" stroke-dasharray="5,2" d="M172.84,-97.32C183.33,-93.33 195.89,-88.61 207.25,-84.5 226.26,-77.62 247.56,-70.23 264.99,-64.25"/>
<polygon fill="gray" stroke="gray" points="266.05,-67.59 274.38,-61.04 263.79,-60.96 266.05,-67.59"/>
<text text-anchor="middle" x="231.25" y="-87.75" font-family="Times,serif" font-style="italic" font-size="10.00">switch off</text>
</g>
<!-- Driver&#45;&gt;Button -->
<g id="edge1" class="edge">
<title>Driver&#45;&gt;Button</title>
<path fill="none" stroke="gray" stroke-dasharray="5,2" d="M338.12,-63.45C355.62,-69.23 376.89,-76.7 395.54,-84.5 401.36,-86.93 407.49,-89.78 413.27,-92.59"/>
<polygon fill="gray" stroke="gray" points="339.26,-60.14 328.67,-60.37 337.09,-66.8 339.26,-60.14"/>
<text text-anchor="middle" x="371.54" y="-87.75" font-family="Times,serif" font-style="italic" font-size="10.00">switch on</text>
</g>
<!-- Driver&#45;&gt;Lamp -->
<g id="edge5" class="edge">
<title>Driver&#45;&gt;Lamp</title>
<path fill="none" stroke="gray" d="M329.59,-49.68C335.5,-49.21 341.73,-48.78 347.54,-48.5 365.39,-47.64 385.2,-47.29 401.86,-47.17"/>
<polygon fill="gray" stroke="gray" points="401.86,-50.67 411.84,-47.13 401.83,-43.67 401.86,-50.67"/>
<text text-anchor="middle" x="371.54" y="-51.75" font-family="Times,serif" font-style="italic" font-size="10.00">voltage</text>
</g>
</g>
</svg>
